<?xml version="1.0" encoding="UTF-8"?>
<svg xmlns="http://www.w3.org/2000/svg" xmlns:xlink="http://www.w3.org/1999/xlink" width="3031px" height="2334px" viewBox="0 0 1515 1167" version="1.1">
<g id="surface1">
<path style=" stroke:none;fill-rule:evenodd;fill:rgb(4.705882%,39.215686%,4.705882%);fill-opacity:1;" d="M 1217.292969 15.617188 C 1215.949219 16.785156 1210.238281 22.128906 1204.601562 27.496094 C 1198.96875 32.867188 1178.609375 51.980469 1159.367188 69.976562 C 1140.125 87.972656 1120.667969 106.199219 1116.132812 110.484375 C 1104.601562 121.367188 1097.363281 127.980469 1090.390625 134 C 1084.496094 139.085938 1068.125 153.578125 1023.445312 193.253906 C 1011.054688 204.257812 992.484375 220.597656 982.175781 229.566406 C 964.09375 245.296875 956.53125 251.992188 922.636719 282.261719 C 914.011719 289.964844 900.652344 301.765625 892.957031 308.484375 C 876.746094 322.628906 865.59375 332.46875 838.222656 356.765625 C 827.363281 366.402344 813.195312 378.875 806.734375 384.480469 C 800.273438 390.082031 792.964844 396.503906 790.488281 398.746094 C 782.121094 406.328125 750.167969 434.632812 716.261719 464.496094 C 675.441406 500.457031 642.539062 529.554688 612.777344 556.015625 C 600.535156 566.90625 581.527344 583.660156 570.542969 593.246094 C 548.582031 612.414062 543.414062 617.046875 534.773438 625.296875 C 525.605469 634.050781 523.066406 634.683594 514.246094 630.417969 C 507.679688 627.242188 505.09375 625.589844 462.320312 597.203125 C 367.394531 534.214844 339.394531 515.824219 339.003906 516.21875 C 338.105469 517.117188 340.246094 520.074219 362.175781 548.25 C 369.878906 558.148438 398.992188 595.613281 426.867188 631.5 C 507.980469 735.925781 520.402344 751.5 522.5625 751.5 C 523.617188 751.5 527.460938 747.804688 534.925781 739.613281 C 543.632812 730.054688 545.457031 728.125 577.796875 694.25 C 602.488281 668.386719 628.648438 640.75 662.03125 605.246094 C 678.746094 587.46875 711.355469 553.140625 728.757812 535 C 734.695312 528.8125 749.097656 513.625 760.761719 501.25 C 803.582031 455.832031 869.871094 385.914062 894.441406 360.25 C 900.5 353.925781 912.648438 341.101562 921.441406 331.75 C 951.832031 299.425781 986.441406 262.875 1010.910156 237.25 C 1026.863281 220.542969 1062.695312 182.550781 1078.359375 165.738281 C 1086.035156 157.496094 1096.621094 146.363281 1101.878906 141 C 1112.253906 130.421875 1120.242188 121.988281 1142.140625 98.5 C 1157.980469 81.511719 1177.667969 60.75 1193.34375 44.5 C 1209.351562 27.902344 1220.597656 15.300781 1220.597656 13.953125 C 1220.597656 13.074219 1219.714844 13.519531 1217.292969 15.617188 "/>
<path style=" stroke:none;fill-rule:evenodd;fill:rgb(1.568627%,1.568627%,1.568627%);fill-opacity:1;" d="M 497.335938 172.535156 C 479.4375 173.484375 448.90625 178.28125 424.109375 184.046875 C 348.664062 201.585938 277.472656 237.492188 219.175781 287.410156 C 198.4375 305.167969 176.308594 327.789062 158.632812 349.304688 C 145.035156 365.855469 128.113281 389.886719 116.601562 409 C 87.863281 456.699219 69.199219 505.757812 57.53125 564.25 C 51.722656 593.382812 49.746094 612.769531 49.152344 646.5 C 48.578125 679.191406 50.488281 707.257812 55.042969 733 C 66.296875 796.632812 85.820312 849.910156 116.695312 901.25 C 147.34375 952.21875 186.40625 996.949219 232.410156 1033.75 C 307.238281 1093.613281 397.359375 1129.496094 492.335938 1137.238281 C 505.636719 1138.320312 524.714844 1138.984375 542.734375 1138.992188 L 558.390625 1139 L 558.167969 1075.375 C 558.015625 1031.175781 557.769531 1010.464844 557.367188 1007.542969 C 556.191406 998.960938 557.089844 999.246094 531.574219 999.359375 C 520.851562 999.40625 511.394531 999.574219 510.554688 999.726562 L 509.027344 1000.007812 L 508.402344 1032.378906 C 507.835938 1061.734375 507.332031 1074.339844 506.605469 1077.3125 C 506.234375 1078.828125 504.359375 1079.050781 496.710938 1078.484375 C 477.097656 1077.03125 449.097656 1072.523438 429.609375 1067.683594 C 336.429688 1044.539062 251.117188 987.472656 191.65625 908.515625 C 181.753906 895.367188 169.75 876.796875 160.945312 861 C 157.027344 853.976562 146.648438 832.863281 142.820312 824.128906 C 123.613281 780.335938 113.628906 739.425781 109.226562 686.5 C 108.800781 681.414062 108.320312 676.070312 108.152344 674.625 L 107.847656 672 L 193.9375 672 L 193.9375 623.5 L 173.066406 623.449219 C 147.070312 623.390625 110.113281 622.835938 109.84375 622.5 C 109.585938 622.183594 110.234375 611.503906 110.96875 604 C 112.339844 589.933594 115.609375 571.636719 119.714844 555.046875 C 136.324219 487.933594 168.609375 426.085938 214.347656 373.75 C 222.207031 364.757812 245.601562 341.640625 254.515625 334.058594 C 311.6875 285.4375 374.957031 254.113281 447.027344 238.757812 C 463.222656 235.304688 487.480469 231.726562 501.335938 230.746094 C 503.671875 230.578125 506.089844 230.339844 506.707031 230.214844 L 507.832031 229.980469 L 507.832031 316.15625 L 520.703125 315.824219 C 527.78125 315.640625 538.882812 315.347656 545.375 315.171875 L 557.175781 314.851562 L 557.492188 306.550781 C 557.667969 301.984375 557.957031 282.882812 558.140625 264.101562 L 558.472656 229.953125 L 559.769531 230.203125 C 560.480469 230.335938 562.976562 230.585938 565.3125 230.753906 C 572.867188 231.304688 590.3125 233.46875 599.800781 235.039062 C 638.308594 241.410156 675.199219 252.574219 709.582031 268.269531 C 738.4375 281.441406 763.714844 296.589844 792.488281 317.945312 C 798.8125 322.640625 804.226562 326.484375 804.519531 326.488281 C 805.25 326.503906 837.324219 294.117188 840.878906 289.777344 C 842.441406 287.867188 843.722656 285.917969 843.722656 285.441406 C 843.722656 282.859375 818.085938 263.375 795.828125 249.039062 C 744.925781 216.253906 692.910156 194.644531 635.125 182.269531 C 616.476562 178.273438 590.6875 174.515625 575.058594 173.511719 C 553.402344 172.125 514.367188 171.632812 497.335938 172.535156 M 934.941406 391.429688 C 934.117188 391.941406 931.433594 394.121094 928.980469 396.273438 C 923.074219 401.460938 895.5 428.539062 895.292969 429.355469 C 895.203125 429.710938 897.734375 434.710938 900.914062 440.472656 C 914.957031 465.917969 923 483.203125 932.09375 507.5 C 943.347656 537.558594 953.136719 574.65625 950.792969 578.34375 C 950.0625 579.492188 947.570312 580 942.53125 580.023438 C 937.765625 580.042969 933.488281 580.535156 932.890625 581.132812 C 932.304688 581.722656 942.894531 601.246094 956.816406 625.25 C 960.644531 631.851562 968.617188 645.632812 974.53125 655.875 C 980.441406 666.117188 985.4375 674.5 985.628906 674.5 C 986.121094 674.5 1005.265625 641.769531 1027.152344 603.5 C 1037.335938 585.691406 1039.15625 582.367188 1039.15625 581.578125 C 1039.15625 580.707031 1036.890625 580.441406 1026.160156 580.046875 C 1015.269531 579.648438 1013.0625 579.25 1012.410156 577.558594 C 1012.238281 577.113281 1010.871094 571.238281 1009.371094 564.5 C 998.539062 515.875 984.714844 474.511719 968.429688 442 C 957.078125 419.335938 939.382812 390.488281 936.84375 390.503906 C 936.621094 390.503906 935.765625 390.921875 934.941406 391.429688 M 763.996094 749.007812 C 756.417969 749.46875 749.816406 750.34375 748.703125 751.03125 C 748.109375 751.398438 748.019531 759.691406 748.097656 805.609375 C 748.148438 835.386719 748.335938 861.347656 748.507812 863.304688 L 748.824219 866.859375 L 754.410156 867.171875 C 757.484375 867.34375 764.328125 867.632812 769.621094 867.816406 L 779.242188 868.152344 L 779.246094 855.949219 C 779.25 844.167969 779.796875 835.746094 780.613281 834.929688 C 780.828125 834.714844 790.222656 834.191406 801.492188 833.769531 C 829.980469 832.703125 835.453125 832.054688 840.878906 829.113281 C 846.0625 826.300781 852.542969 818.148438 854.082031 812.5 C 854.851562 809.671875 854.964844 807.007812 854.945312 792 C 854.921875 776.273438 854.824219 774.3125 853.84375 769.808594 C 852.496094 763.601562 850.722656 759.949219 847.5 756.71875 C 840.902344 750.109375 833.957031 749.066406 794.488281 748.761719 C 781.566406 748.660156 767.847656 748.773438 763.996094 749.007812 M 626.792969 808.46875 L 626.792969 868 L 659.65625 867.992188 C 693.417969 867.984375 706.648438 867.558594 712.773438 866.28125 C 720.144531 864.746094 726.207031 859.980469 729.714844 852.972656 C 732.558594 847.285156 733.441406 842.742188 733.148438 835.308594 C 732.761719 825.515625 730.058594 818.988281 723.140625 811.117188 C 721.269531 808.992188 719.273438 806.292969 718.707031 805.125 L 717.675781 803 L 719.921875 799.847656 C 725.964844 791.382812 727.269531 787.964844 727.609375 779.75 C 727.910156 772.480469 727.074219 767.875 724.515625 762.675781 C 722.453125 758.484375 718.28125 754.316406 714.09375 752.265625 C 708.363281 749.460938 706.953125 749.371094 665.15625 749.144531 L 626.792969 748.933594 L 626.792969 808.46875 M 870.453125 763.625 C 870.601562 771.667969 870.863281 798.21875 871.03125 822.625 L 871.332031 867 L 965.539062 867 L 965.847656 863.125 C 966.019531 860.992188 966.3125 855.929688 966.496094 851.875 L 966.832031 844.5 L 902.203125 844.5 L 902.203125 820 L 920.320312 819.992188 C 937.796875 819.984375 945.699219 819.574219 949.820312 818.464844 C 951.460938 818.023438 951.9375 817.570312 952.847656 815.59375 C 953.757812 813.609375 953.925781 812.328125 953.929688 807.25 C 953.9375 800.792969 953.007812 796.976562 951.195312 796.003906 C 949.71875 795.214844 934.027344 794.515625 917.570312 794.507812 L 902.203125 794.5 L 902.203125 772.613281 L 908.574219 772.3125 C 912.082031 772.148438 923.496094 771.898438 933.941406 771.75 C 944.386719 771.605469 955.773438 771.355469 959.246094 771.191406 L 965.554688 770.894531 L 965.855469 767.324219 C 966.019531 765.359375 966.304688 760.429688 966.488281 756.375 L 966.824219 749 L 870.179688 749 L 870.453125 763.625 M 980.675781 808.578125 L 980.675781 868.152344 L 990.546875 867.820312 C 995.976562 867.636719 1002.949219 867.34375 1006.042969 867.171875 L 1011.667969 866.851562 L 1011.699219 846.050781 C 1011.738281 822.140625 1012.242188 807.222656 1013.035156 806.429688 C 1014.011719 805.453125 1017.792969 811.421875 1029.449219 832.339844 L 1035.90625 843.929688 L 1040.15625 844.289062 C 1042.492188 844.484375 1047.105469 844.667969 1050.402344 844.695312 C 1055.421875 844.742188 1056.652344 844.597656 1057.929688 843.824219 C 1059.746094 842.722656 1061.222656 840.425781 1072.679688 820.878906 C 1079.777344 808.765625 1081.453125 806.21875 1081.722656 807.128906 C 1081.902344 807.746094 1082.449219 821.4375 1082.933594 837.554688 L 1083.816406 866.859375 L 1089.601562 867.167969 C 1092.785156 867.339844 1099.71875 867.628906 1105.011719 867.816406 L 1114.632812 868.152344 L 1114.632812 748.988281 L 1098.085938 749.117188 L 1081.535156 749.25 L 1071.71875 767.550781 C 1056.820312 795.324219 1050.332031 806.332031 1048.046875 807.707031 C 1046.199219 808.820312 1044.601562 806.503906 1034.777344 788.445312 C 1029.480469 778.714844 1022.628906 765.855469 1019.550781 759.875 L 1013.953125 749 L 980.675781 749 L 980.675781 808.578125 M 1156.253906 749.527344 C 1144.894531 750.820312 1136.953125 757.738281 1134.382812 768.589844 C 1133.109375 773.949219 1132.472656 787.949219 1133.089844 796.878906 C 1134.238281 813.441406 1137.273438 819.894531 1145.835938 823.984375 C 1148.066406 825.046875 1150.300781 826.367188 1150.792969 826.917969 C 1151.667969 827.882812 1151.640625 828.039062 1149.871094 832.082031 C 1148.867188 834.375 1145.488281 841.085938 1142.363281 847 C 1133.921875 862.96875 1132.304688 866.492188 1133.167969 867.035156 C 1133.992188 867.558594 1150.523438 867.648438 1158.277344 867.175781 L 1163.59375 866.847656 L 1170.792969 853.550781 C 1174.753906 846.234375 1179.421875 837.605469 1181.164062 834.375 L 1184.335938 828.5 L 1207.601562 828.5 L 1207.601562 868.152344 L 1217.472656 867.820312 C 1222.902344 867.636719 1229.875 867.34375 1232.96875 867.171875 L 1238.589844 866.851562 L 1238.589844 750.128906 L 1236.21875 749.835938 C 1231.976562 749.3125 1160.5625 749.039062 1156.253906 749.527344 M 658.441406 776.300781 C 658.613281 778.746094 658.90625 784.054688 659.089844 788.09375 L 659.425781 795.433594 L 662.476562 795.703125 C 670.300781 796.382812 679.871094 796.515625 684.023438 796 C 693.304688 794.847656 697.269531 791.4375 697.269531 784.605469 C 697.269531 780.808594 696.128906 777.542969 694.125 775.601562 C 691.378906 772.945312 688.375 772.46875 672.324219 772.140625 L 658.128906 771.851562 L 658.441406 776.300781 M 787.007812 772.535156 C 785.097656 772.800781 782.734375 773.40625 781.761719 773.882812 C 780.027344 774.734375 779.984375 774.824219 779.652344 778.5 C 779.34375 781.914062 780.070312 807.496094 780.488281 807.914062 C 780.585938 808.011719 786.476562 808.3125 793.574219 808.585938 C 811.078125 809.253906 820.074219 808.621094 821.882812 806.59375 C 822.300781 806.128906 823.042969 804.398438 823.539062 802.75 C 824.789062 798.578125 824.804688 785.683594 823.566406 781 C 822.125 775.558594 820.898438 774.492188 814.613281 773.214844 C 810.148438 772.304688 791.914062 771.859375 787.007812 772.535156 M 1172.863281 772.847656 C 1169.617188 773.28125 1166.625 774.605469 1165.179688 776.25 C 1163.082031 778.644531 1162.453125 782.066406 1162.695312 789.796875 C 1162.867188 795.257812 1163.078125 796.617188 1164.054688 798.632812 C 1165.402344 801.410156 1167.9375 803.105469 1172.011719 803.949219 C 1174.9375 804.558594 1190.300781 804.675781 1200.230469 804.171875 L 1206.601562 803.84375 L 1206.601562 773.160156 L 1196.480469 772.832031 C 1186.03125 772.492188 1175.488281 772.5 1172.863281 772.847656 M 658.28125 832.25 L 658.28125 844.5 L 672.492188 844.5 C 696 844.5 700.027344 843.324219 701.375 836.070312 C 701.808594 833.730469 701.804688 832.070312 701.351562 829.152344 C 700.59375 824.285156 699.539062 822.4375 697.046875 821.613281 C 693.976562 820.597656 684.503906 820.015625 670.902344 820.007812 L 658.28125 820 L 658.28125 832.25 M 1412.035156 925.109375 C 1412.035156 928.640625 1412.308594 931.753906 1412.75 933.21875 C 1415.332031 941.808594 1423.863281 945.621094 1442.023438 946.308594 C 1454.074219 946.765625 1461.421875 944.730469 1466.484375 939.535156 C 1470.746094 935.15625 1473.503906 928.003906 1472.78125 923.191406 C 1472.296875 919.953125 1471.65625 919.75 1461.996094 919.75 C 1452.328125 919.75 1451.679688 919.984375 1449.828125 924.164062 C 1449.191406 925.609375 1448.109375 927.15625 1447.425781 927.601562 C 1442.195312 931.03125 1434.78125 928.945312 1433.453125 923.667969 C 1432.546875 920.058594 1431.84375 919.824219 1421.210938 919.585938 L 1412.035156 919.378906 L 1412.035156 925.109375 M 626.792969 1014.75 L 626.792969 1074.644531 L 631.167969 1074.335938 C 633.574219 1074.167969 640.191406 1073.875 645.875 1073.691406 C 651.558594 1073.507812 656.476562 1073.1875 656.804688 1072.984375 C 657.222656 1072.726562 657.582031 1068.046875 658.011719 1057.308594 C 658.34375 1048.886719 658.773438 1041.84375 658.960938 1041.65625 C 659.144531 1041.46875 665.199219 1041.140625 672.410156 1040.925781 C 698.449219 1040.15625 708.917969 1039.148438 716.167969 1036.714844 C 727.945312 1032.757812 731.472656 1025.910156 732.800781 1004.433594 C 733.515625 992.890625 733.183594 980.359375 732.0625 976.339844 C 730.90625 972.191406 727.648438 965.609375 725.527344 963.144531 C 723.007812 960.214844 718.617188 958.191406 712.765625 957.265625 C 705.742188 956.152344 690.582031 955.59375 656.90625 955.203125 L 626.792969 954.855469 L 626.792969 1014.75 M 761.25 955.511719 C 753.085938 955.945312 749.921875 956.402344 749.035156 957.289062 C 747.917969 958.40625 747.601562 978.070312 747.953125 1024.433594 C 748.132812 1047.984375 748.40625 1068.515625 748.558594 1070.066406 L 748.835938 1072.882812 L 751.167969 1073.175781 C 752.453125 1073.339844 773.800781 1073.625 798.613281 1073.8125 L 843.722656 1074.15625 L 843.722656 1051 L 779.242188 1051 L 779.242188 1026.613281 L 802.109375 1026.367188 C 826.355469 1026.105469 828.089844 1025.941406 829.535156 1023.730469 C 830.863281 1021.699219 831.417969 1015.21875 830.84375 1008.460938 C 830.558594 1005.148438 830.203125 1002.308594 830.046875 1002.15625 C 829.894531 1002 818.457031 1001.578125 804.628906 1001.21875 C 790.804688 1000.855469 779.4375 1000.546875 779.367188 1000.53125 C 779.296875 1000.511719 779.242188 995.550781 779.242188 989.5 L 779.242188 978.5 L 843.722656 978.5 L 843.722656 955 L 805.859375 955.078125 C 785.035156 955.121094 764.960938 955.316406 761.25 955.511719 M 857.957031 970.125 C 858.105469 978.445312 858.367188 1004.964844 858.53125 1029.058594 L 858.835938 1072.867188 L 863.148438 1073.171875 C 865.523438 1073.339844 899.703125 1073.632812 939.101562 1073.820312 L 1010.742188 1074.160156 L 1010.46875 1070.703125 C 1010.316406 1068.804688 1010.066406 1042.949219 1009.910156 1013.25 C 1009.753906 983.550781 1009.503906 958.550781 1009.355469 957.695312 L 1009.082031 956.140625 L 1003.5 955.828125 C 1000.433594 955.65625 993.589844 955.367188 988.300781 955.183594 L 978.675781 954.847656 L 978.675781 1051 L 950.1875 1051 L 950.1875 955 L 918.195312 955 L 918.195312 1051 L 889.707031 1051 L 889.707031 955 L 857.679688 955 L 857.957031 970.125 M 1030.660156 1014.5 L 1030.660156 1074 L 1054.777344 1073.949219 C 1089.769531 1073.875 1125.480469 1073.316406 1125.960938 1072.832031 C 1126.191406 1072.605469 1126.378906 1068.546875 1126.378906 1063.8125 C 1126.378906 1054.363281 1126.050781 1053.113281 1123.226562 1051.851562 C 1122.238281 1051.410156 1114.015625 1051.210938 1092.265625 1051.101562 L 1062.648438 1050.957031 L 1062.6875 1041.101562 C 1062.734375 1029.664062 1063.203125 1026.996094 1065.253906 1026.453125 C 1066 1026.257812 1076.742188 1025.929688 1089.121094 1025.726562 L 1111.632812 1025.359375 L 1111.632812 1002.109375 L 1106.757812 1001.8125 C 1104.078125 1001.652344 1095.25 1001.398438 1087.140625 1001.25 C 1079.03125 1001.101562 1070.203125 1000.847656 1067.523438 1000.6875 L 1062.648438 1000.390625 L 1062.648438 978.65625 L 1078.269531 978.332031 C 1086.859375 978.15625 1101.15625 977.859375 1110.035156 977.675781 L 1126.179688 977.347656 L 1125.835938 966.796875 C 1125.648438 960.996094 1125.464844 956.207031 1125.425781 956.15625 C 1125.34375 956.042969 1045.847656 955.003906 1037.03125 955 L 1030.660156 955 L 1030.660156 1014.5 M 1145.425781 955.527344 C 1140.636719 956.328125 1140.238281 956.679688 1139.839844 960.386719 C 1139.648438 962.199219 1139.59375 988.183594 1139.722656 1018.132812 C 1139.902344 1060.78125 1140.089844 1072.671875 1140.574219 1072.96875 C 1140.917969 1073.183594 1145.847656 1073.507812 1151.53125 1073.691406 C 1157.214844 1073.875 1163.835938 1074.167969 1166.238281 1074.335938 L 1170.613281 1074.644531 L 1170.613281 1026.5 L 1214.097656 1026.5 L 1214.097656 1074.636719 L 1218.722656 1074.328125 C 1221.265625 1074.160156 1227.621094 1073.890625 1232.84375 1073.734375 C 1238.066406 1073.574219 1242.847656 1073.339844 1243.464844 1073.210938 L 1244.589844 1072.980469 L 1244.589844 956.148438 L 1238.964844 955.832031 C 1235.875 955.65625 1229.011719 955.367188 1223.722656 955.183594 L 1214.097656 954.847656 L 1214.097656 1001 L 1170.613281 1001 L 1170.613281 955 L 1159.242188 955.058594 C 1152.988281 955.089844 1146.769531 955.300781 1145.425781 955.527344 M 1266.082031 1014.507812 L 1266.082031 1074.015625 L 1281.894531 1073.882812 L 1297.703125 1073.75 L 1311.546875 1049.5 C 1330.902344 1015.59375 1336.625 1006.363281 1337.652344 1007.394531 C 1338.648438 1008.390625 1339.015625 1018.675781 1339.035156 1046.125 L 1339.058594 1074 L 1370.546875 1074 L 1370.546875 955 L 1353.929688 955.011719 L 1337.308594 955.019531 L 1325.0625 977.109375 C 1312.949219 998.960938 1303.433594 1015.253906 1300.097656 1019.867188 L 1298.375 1022.25 L 1297.996094 1020.097656 C 1297.132812 1015.222656 1296.519531 1001.570312 1296.289062 982 C 1296.152344 970.585938 1295.917969 959.84375 1295.765625 958.125 L 1295.492188 955 L 1266.082031 955 L 1266.082031 1014.507812 M 1391.039062 1014.820312 L 1391.039062 1074.644531 L 1395.914062 1074.332031 C 1398.59375 1074.160156 1405.796875 1073.867188 1411.917969 1073.683594 C 1418.738281 1073.480469 1423.316406 1073.136719 1423.746094 1072.800781 C 1424.132812 1072.496094 1429.886719 1062.574219 1436.535156 1050.75 C 1447.988281 1030.375 1456.582031 1015.550781 1460.417969 1009.550781 C 1461.890625 1007.246094 1462.214844 1006.976562 1462.628906 1007.71875 C 1463.566406 1009.390625 1463.980469 1021.492188 1464 1047.625 L 1464.015625 1074 L 1495.507812 1074 L 1495.507812 954.988281 L 1479.15625 955.117188 L 1462.804688 955.25 L 1451.207031 976.101562 C 1436.296875 1002.910156 1424.78125 1022.167969 1423.003906 1023.265625 C 1421.472656 1024.210938 1420.601562 1006.675781 1420.558594 974.125 L 1420.53125 955 L 1391.039062 955 L 1391.039062 1014.820312 M 658.28125 997.007812 L 658.28125 1015.636719 L 675.152344 1015.351562 C 693.324219 1015.046875 697.714844 1014.542969 699.300781 1012.585938 C 699.765625 1012.007812 700.453125 1010.011719 700.820312 1008.144531 C 701.6875 1003.777344 701.734375 987.554688 700.886719 984.71875 C 699.375 979.652344 696.664062 979.03125 674.402344 978.652344 L 658.28125 978.382812 L 658.28125 997.007812 "/>
</g>
</svg>
