<svg xmlns="http://www.w3.org/2000/svg" width="350" height="250" viewBox="0 0 350 250" version="1.1"><path d="" stroke="none" fill="#4cac8c" fill-rule="evenodd"/><path d="M 163.797 31.732 C 148.317 37.551, 139.971 51.166, 141.455 68.180 C 142.080 75.344, 144.665 86.504, 144.901 83.059 C 144.956 82.266, 146.594 84.265, 148.543 87.501 C 155.290 98.706, 170.560 114, 175 114 C 179.748 114, 197.078 96.113, 202.661 85.450 C 204.187 82.535, 205.758 80.351, 206.153 80.595 C 207.251 81.273, 208.450 72.436, 208.476 63.479 L 208.500 55.458 205.208 48.771 C 201.602 41.445, 196.523 36.429, 189.136 32.896 C 182.761 29.846, 170.333 29.276, 163.797 31.732 M 160.169 42.992 C 144.235 54.535, 146.458 75.565, 165.786 96.110 C 169.868 100.450, 174.014 104, 175 104 C 175.986 104, 180.132 100.450, 184.214 96.110 C 203.542 75.565, 205.765 54.535, 189.831 42.992 L 185.700 40 175 40 L 164.300 40 160.169 42.992 M 169.500 47.891 C 161.914 51.202, 160.102 61.948, 166.116 67.962 C 173.246 75.092, 185.575 71.407, 187.416 61.595 C 188.172 57.564, 186.357 52.463, 183.148 49.604 C 180.783 47.497, 172.721 46.485, 169.500 47.891 M 172.200 56.200 C 168.806 59.594, 172.797 65.249, 177 63 C 180.530 61.111, 179.002 55, 175 55 C 174.120 55, 172.860 55.540, 172.200 56.200 M 128.383 131.583 C 119.219 136.104, 122.561 150, 132.812 150 C 135.230 150, 137.700 149.253, 139.139 148.086 C 141.855 145.884, 140.880 143.969, 137.968 145.788 C 136.901 146.455, 134.472 147, 132.570 147 C 126.179 147, 123.561 139.064, 128.635 135.073 C 131.732 132.636, 134.857 132.424, 137.559 134.468 C 140.074 136.370, 141 136.365, 141 134.449 C 141 132.962, 135.454 129.975, 132.782 130.023 C 132.077 130.035, 130.097 130.738, 128.383 131.583 M 323.630 133.250 C 323.299 134.488, 323.021 136.629, 323.014 138.010 L 323 140.519 326.250 140.510 L 329.500 140.500 329.500 143.500 C 329.500 145.909, 329.025 146.567, 327.090 146.840 C 325.645 147.045, 324.325 146.545, 323.791 145.590 C 322.559 143.389, 321 143.598, 321 145.965 C 321 149.871, 328.382 151.445, 331.345 148.171 C 334.761 144.396, 332.329 137, 327.671 137 C 326.667 137, 326 136.202, 326 135 C 326 133.381, 326.667 133, 329.500 133 C 331.425 133, 333 132.550, 333 132 C 333 131.450, 331.027 131, 328.617 131 L 324.233 131 323.630 133.250 M 17.761 135.572 C 17.446 135.887, 18.450 138.923, 19.992 142.320 L 22.795 148.495 21.398 151.198 C 19.662 154.554, 19.657 155, 21.357 155 C 22.110 155, 24.558 150.813, 26.857 145.591 C 31.516 135.010, 31.518 135, 29.625 135 C 28.869 135, 27.358 137.137, 26.268 139.750 L 24.286 144.500 21.944 139.750 C 19.661 135.121, 18.936 134.397, 17.761 135.572 M 38.120 141.228 C 34.788 148.412, 34.407 150, 36.013 150 C 36.570 150, 38.005 147.985, 39.202 145.521 L 41.378 141.043 43.316 145.521 C 44.383 147.985, 45.873 150, 46.627 150 C 48.514 150, 48.387 149.474, 44.581 141.500 L 41.240 134.500 38.120 141.228 M 53.667 135.667 C 52.768 136.565, 52.811 149, 53.712 149 C 54.104 149, 56.354 147.106, 58.712 144.792 L 63 140.584 63 145.292 C 63 148.810, 63.379 150, 64.500 150 C 65.704 150, 66 148.476, 66 142.288 L 66 134.575 61 139.500 L 56 144.425 56 139.712 C 56 135.323, 55.272 134.061, 53.667 135.667 M 72.415 136.362 C 72.127 137.111, 72.029 140.374, 72.196 143.612 L 72.500 149.500 78.750 149.798 C 82.188 149.961, 85 150.524, 85 151.048 C 85 151.571, 85.450 152, 86 152 C 86.550 152, 87 150.875, 87 149.500 C 87 147.944, 86.433 147, 85.500 147 C 84.333 147, 84 145.667, 84 141 C 84 137.667, 83.556 135, 83 135 C 82.444 135, 82 137.667, 82 141 L 82 147 78.500 147 L 75 147 75 141 C 75 135.420, 73.683 133.057, 72.415 136.362 M 94.174 137.314 C 91.407 140.260, 91.324 145.324, 94 148 C 96.222 150.222, 100.949 150.651, 102.800 148.800 C 103.733 147.867, 104 147.867, 104 148.800 C 104 149.460, 104.450 150, 105 150 C 105.578 150, 106 146.833, 106 142.500 C 106 138.167, 105.578 135, 105 135 C 104.450 135, 104 135.540, 104 136.200 C 104 137.133, 103.733 137.133, 102.800 136.200 C 100.858 134.258, 96.520 134.818, 94.174 137.314 M 147.415 136.362 C 146.427 138.936, 147.463 149.330, 148.750 149.754 C 149.580 150.028, 150 149.064, 150 146.887 L 150 143.608 153.298 146.804 C 156.368 149.780, 159 150.931, 159 149.298 C 159 148.911, 157.564 147.113, 155.808 145.302 L 152.617 142.009 155.308 139.200 C 159.909 134.398, 157.658 133.037, 152.805 137.687 L 150 140.374 150 137.687 C 150 134.877, 148.316 134.014, 147.415 136.362 M 165.455 137.455 C 160.608 142.301, 163.853 150, 170.742 150 C 174.364 150, 178 146.152, 178 142.320 C 178 139.140, 173.758 135, 170.500 135 C 169.075 135, 166.805 136.105, 165.455 137.455 M 185.455 137.455 C 180.658 142.251, 183.851 150, 190.623 150 C 194.514 150, 197.951 147.593, 196.363 145.980 C 195.554 145.159, 195.032 145.139, 194.554 145.913 C 193.651 147.373, 188.697 147.297, 187.200 145.800 C 186.540 145.140, 186 143.655, 186 142.500 C 186 141.345, 186.540 139.860, 187.200 139.200 C 188.654 137.746, 193.641 137.610, 194.500 139 C 195.425 140.497, 197 140.205, 197 138.535 C 197 134.625, 189.030 133.879, 185.455 137.455 M 203.415 136.362 C 203.127 137.111, 203.029 140.374, 203.196 143.612 L 203.500 149.500 206.201 149.812 C 210.294 150.284, 213 148.397, 213 145.072 C 213 142.167, 211.543 141, 207.918 141 C 206.454 141, 206 140.291, 206 138 C 206 134.939, 204.359 133.900, 203.415 136.362 M 215 142.500 C 215 148.189, 215.322 150.059, 216.250 149.750 C 217.087 149.471, 217.500 147.078, 217.500 142.500 C 217.500 137.922, 217.087 135.529, 216.250 135.250 C 215.322 134.941, 215 136.811, 215 142.500 M 224 145.333 C 224 152.752, 224.307 155.066, 225.250 154.756 C 225.938 154.530, 226.633 153.236, 226.797 151.879 L 227.093 149.412 230.332 149.791 C 235.060 150.343, 238.400 147.325, 238.400 142.500 C 238.400 137.257, 235.461 135.017, 228.941 135.292 L 224.001 135.500 224 145.333 M 246.174 137.314 C 241.698 142.079, 244.642 150, 250.889 150 C 254.367 150, 258.646 146.854, 257.560 145.097 C 256.984 144.165, 256.366 144.264, 254.989 145.510 C 252.663 147.615, 247.636 147.125, 247.185 144.750 L 246.853 143 252.875 143 L 258.896 143 257.843 139.979 C 255.988 134.659, 249.962 133.283, 246.174 137.314 M 264.667 135.667 C 264.300 136.033, 264 139.208, 264 142.721 L 264 149.110 268.750 148.805 L 273.500 148.500 273.215 143 C 273.023 139.308, 272.385 137.089, 271.274 136.250 C 269.495 134.907, 265.756 134.577, 264.667 135.667 M 281.455 137.455 C 278.463 140.446, 278.322 143.868, 281.046 147.332 L 283.093 149.934 288.546 149.790 L 294 149.647 294 142.323 C 294 136.480, 293.697 135, 292.500 135 C 291.675 135, 291 135.540, 291 136.200 C 291 137.133, 290.733 137.133, 289.800 136.200 C 287.854 134.254, 284.089 134.820, 281.455 137.455 M 95.570 140.204 L 94.026 142.407 95.385 144.454 C 97.049 146.959, 101.850 147.185, 103.337 144.828 C 104.087 143.638, 104.053 142.411, 103.217 140.578 C 101.726 137.305, 97.737 137.110, 95.570 140.204 M 167.200 139.200 C 166.540 139.860, 166 141.345, 166 142.500 C 166 143.655, 166.540 145.140, 167.200 145.800 C 167.860 146.460, 169.345 147, 170.500 147 C 171.655 147, 173.140 146.460, 173.800 145.800 C 174.460 145.140, 175 143.655, 175 142.500 C 175 141.345, 174.460 139.860, 173.800 139.200 C 173.140 138.540, 171.655 138, 170.500 138 C 169.345 138, 167.860 138.540, 167.200 139.200 M 227.632 140.115 C 225.436 143.251, 226.961 146.425, 230.851 146.813 C 233.364 147.064, 234.206 146.642, 235.096 144.689 C 237.533 139.339, 230.986 135.327, 227.632 140.115 M 248.042 139.449 L 246.755 141 250.961 141 C 253.878 141, 255.041 140.617, 254.756 139.750 C 254.143 137.881, 249.515 137.674, 248.042 139.449 M 267 139.500 C 267 140.325, 267.675 141, 268.500 141 C 269.325 141, 270 140.325, 270 139.500 C 270 138.675, 269.325 138, 268.500 138 C 267.675 138, 267 138.675, 267 139.500 M 283.200 139.200 C 280.395 142.005, 282.508 147, 286.500 147 C 289.180 147, 291 145.180, 291 142.500 C 291 139.820, 289.180 138, 286.500 138 C 285.345 138, 283.860 138.540, 283.200 139.200 M 206 145 C 206 146.273, 206.667 147, 207.833 147 C 210.374 147, 211.190 145.934, 209.869 144.342 C 208.210 142.344, 206 142.720, 206 145 M 267 145.500 C 267 146.333, 267.889 147, 269 147 C 270.111 147, 271 146.333, 271 145.500 C 271 144.667, 270.111 144, 269 144 C 267.889 144, 267 144.667, 267 145.500 M 300.943 148.107 C 300.185 149.523, 300.146 150.546, 300.822 151.222 C 301.499 151.899, 302.359 151.207, 303.441 149.115 L 305.051 146 303.561 146 C 302.741 146, 301.563 146.948, 300.943 148.107" stroke="none" fill="#4cb48c" fill-rule="evenodd"/></svg>